M48
; DRILL file {KiCad (6.0.6)} date Thu Jun 30 15:09:27 2022
; FORMAT={-:-/ absolute / metric / decimal}
; #@! TF.CreationDate,2022-06-30T15:09:27+02:00
; #@! TF.GenerationSoftware,Kicad,Pcbnew,(6.0.6)
; #@! TF.FileFunction,Plated,1,2,PTH
FMAT,2
METRIC
; #@! TA.AperFunction,Plated,PTH,ComponentDrill
T1C0.762
; #@! TA.AperFunction,Plated,PTH,ComponentDrill
T2C0.800
; #@! TA.AperFunction,Plated,PTH,ComponentDrill
T3C0.850
; #@! TA.AperFunction,Plated,PTH,ComponentDrill
T4C0.900
; #@! TA.AperFunction,Plated,PTH,ComponentDrill
T5C1.000
; #@! TA.AperFunction,Plated,PTH,ComponentDrill
T6C1.100
; #@! TA.AperFunction,Plated,PTH,ComponentDrill
T7C1.300
%
G90
G05
T1
X143.51Y-69.245
X143.51Y-71.785
X143.51Y-74.325
X143.51Y-76.865
X143.51Y-79.405
X143.51Y-81.945
X143.51Y-84.485
X143.51Y-87.025
X143.51Y-89.565
X143.51Y-92.105
X143.51Y-94.645
X143.51Y-97.185
X143.51Y-99.725
X143.51Y-102.265
X143.51Y-104.805
X143.51Y-107.345
X143.51Y-109.885
X143.51Y-112.425
X143.51Y-114.965
X143.51Y-117.505
X149.86Y-117.275
X152.4Y-117.275
X154.94Y-117.275
X161.29Y-69.245
X161.29Y-71.785
X161.29Y-74.325
X161.29Y-76.865
X161.29Y-79.405
X161.29Y-81.945
X161.29Y-84.485
X161.29Y-87.025
X161.29Y-89.565
X161.29Y-92.105
X161.29Y-94.645
X161.29Y-97.185
X161.29Y-99.725
X161.29Y-102.265
X161.29Y-104.805
X161.29Y-107.345
X161.29Y-109.885
X161.29Y-112.425
X161.29Y-114.965
X161.29Y-117.505
T2
X110.49Y-121.92
X112.99Y-121.92
X116.88Y-121.92
X119.38Y-121.92
T3
X123.19Y-104.14
X123.19Y-109.22
X130.81Y-104.14
X130.81Y-109.22
X176.53Y-104.14
X176.53Y-109.22
X184.15Y-104.14
X184.15Y-109.22
T4
X125.73Y-74.93
X125.73Y-82.55
X125.73Y-90.17
X125.73Y-97.79
X128.27Y-74.93
X128.27Y-82.55
X128.27Y-90.17
X128.27Y-97.79
X179.07Y-74.93
X179.07Y-82.55
X179.07Y-90.17
X179.07Y-97.79
X181.61Y-74.93
X181.61Y-82.55
X181.61Y-90.17
X181.61Y-97.79
T5
X96.495Y-71.105
X96.495Y-73.645
X96.495Y-76.185
X104.115Y-71.12
X104.115Y-73.66
X104.115Y-76.2
X111.511Y-72.922
X111.511Y-75.462
X118.11Y-72.987
X118.11Y-75.527
T6
X112.526Y-116.575
X112.705Y-86.36
X112.705Y-88.9
X112.705Y-91.44
X112.705Y-99.06
X112.705Y-101.6
X112.705Y-104.14
X115.066Y-116.575
X117.606Y-116.575
T7
X99.06Y-86.36
X99.06Y-91.44
X99.06Y-99.06
X99.06Y-104.14
X99.06Y-111.76
X99.06Y-116.84
T0
M30
